<?xml version="1.0" standalone="no"?>
<!DOCTYPE svg PUBLIC "-//W3C//DTD SVG 20010904//EN"
 "http://www.w3.org/TR/2001/REC-SVG-20010904/DTD/svg10.dtd">
<svg version="1.0" xmlns="http://www.w3.org/2000/svg"
 width="500.000000pt" height="500.000000pt" viewBox="0 0 500.000000 500.000000"
 preserveAspectRatio="xMidYMid meet">

<g transform="translate(0.000000,500.000000) scale(0.100000,-0.100000)"
fill="#000000" stroke="none">
<path d="M3210 3595 c-235 -47 -399 -182 -472 -387 -20 -56 -23 -86 -26 -275
l-4 -213 296 0 296 0 0 158 c0 126 3 162 16 180 19 28 72 30 105 3 22 -18 24
-28 29 -151 4 -115 7 -133 24 -146 31 -22 488 -20 510 2 22 21 22 264 1 372
-49 242 -213 410 -447 457 -92 18 -238 18 -328 0z"/>
<path d="M970 3560 c-19 -19 -20 -33 -20 -248 0 -180 3 -232 14 -247 13 -18
30 -20 159 -23 l145 -4 6 -50 c4 -28 6 -99 5 -157 l-2 -106 292 -3 291 -2 0
159 0 160 151 3 c135 3 152 5 165 22 11 16 14 65 14 232 0 207 -6 259 -33 276
-7 4 -272 8 -589 8 -565 0 -578 0 -598 -20z"/>
<path d="M1280 1825 c0 -469 1 -485 19 -495 12 -6 120 -10 280 -10 247 0 261
1 271 19 6 13 10 187 10 495 l0 476 -290 0 -290 0 0 -485z"/>
<path d="M2710 2063 c0 -180 4 -267 15 -318 45 -213 215 -380 450 -441 95 -25
295 -25 385 -1 158 43 274 121 352 237 84 125 91 161 96 488 l4 282 -329 -2
-328 -3 0 -82 c0 -45 5 -87 10 -92 6 -5 29 -11 53 -12 l42 -3 0 -126 c0 -118
-1 -128 -22 -147 -34 -31 -63 -36 -98 -18 -16 8 -31 17 -32 18 -1 1 -5 106 -8
232 l-5 230 -292 3 -293 2 0 -247z"/>
</g>
</svg>
